<svg width="30" height="30" viewBox="0 0 30 30" fill="none" xmlns="http://www.w3.org/2000/svg">
<path d="M27 0C28.6568 0 29.9999 1.34319 30 3V27C30 28.6569 28.6569 30 27 30H3C1.34315 30 0 28.6569 0 27V3C5.57911e-05 1.34319 1.34318 0 3 0H27ZM22.876 8.88867C22.8759 7.96741 21.6094 8.52441 21.6094 8.52441L6.20605 14.5723C6.19301 14.5768 5.47773 14.8263 5.53516 15.2832C5.59167 15.7375 6.17137 15.9496 6.18652 15.9551L9.96484 17.2275L19.7588 11.002C20.2796 10.6856 20.5579 10.9356 20.1094 11.3545C19.8149 11.6292 13.1901 17.5917 12.335 18.3604L12.3643 18.374L18.6934 23.2324C19.7351 23.6872 20.1226 22.756 20.1318 22.7334L22.876 8.88867Z" fill="#71101E"/>
</svg>
