<svg width="30" height="30" viewBox="0 0 30 30" fill="none" xmlns="http://www.w3.org/2000/svg">
<g clip-path="url(#clip0_164_638)">
<path d="M30 30H0V0H30V30ZM15.9951 18.3711C15.9945 18.9736 15.8041 19.5615 15.4512 20.0498C15.0983 20.5378 14.6008 20.9021 14.0293 21.0918C13.4575 21.2815 12.8404 21.2869 12.2656 21.1064C11.6908 20.9259 11.1868 20.5686 10.8262 20.0859C10.4657 19.6033 10.2661 19.0193 10.2559 18.417C10.2457 17.8146 10.4255 17.2241 10.7695 16.7295C11.1136 16.2349 11.6046 15.8611 12.1729 15.6611C12.7412 15.4611 13.3586 15.4451 13.9365 15.6152V12.335C12.7084 12.1694 11.4584 12.3822 10.3545 12.9453C9.25045 13.5086 8.34368 14.3956 7.75684 15.4873C7.17011 16.5789 6.93014 17.8242 7.06934 19.0557C7.20861 20.2871 7.72052 21.4468 8.53613 22.3799C9.35179 23.313 10.433 23.9747 11.6348 24.2773C12.8366 24.5799 14.1024 24.5088 15.2627 24.0732C16.423 23.6376 17.4231 22.8586 18.1289 21.8398C18.8347 20.821 19.2128 19.6105 19.2129 18.3711L19.3105 11.6914C20.6972 12.7093 22.3736 13.2574 24.0938 13.2549V9.87988C23.4735 9.87987 22.8592 9.75787 22.2861 9.52051C21.713 9.28312 21.1925 8.93472 20.7539 8.49609C20.3153 8.05747 19.9669 7.53694 19.7295 6.96387C19.4921 6.3908 19.3701 5.77652 19.3701 5.15625H15.9951V18.3711Z" fill="#71101E"/>
</g>
<defs>
<clipPath id="clip0_164_638">
<rect width="30" height="30" rx="3" fill="white"/>
</clipPath>
</defs>
</svg>
