<svg width="30" height="30" viewBox="0 0 30 30" fill="none" xmlns="http://www.w3.org/2000/svg">
<path d="M26.8984 0C28.5551 0.00016751 29.8984 1.34325 29.8984 3V26.8984C29.8983 28.5551 28.5551 29.8983 26.8984 29.8984H3C1.34335 29.8983 0.000125734 28.5551 0 26.8984V3C2.57665e-07 1.34324 1.34327 0.000147895 3 0H26.8984ZM5.0459 9.17188C5.20908 17.0503 9.1242 21.7852 15.9873 21.7852H16.376V17.2773C17.5865 17.4308 18.7254 17.9404 19.6494 18.7422C20.5734 19.544 21.2415 20.6028 21.5703 21.7852H25.1338C24.7675 20.4238 24.1184 19.1558 23.2295 18.0654C22.3406 16.9751 21.2317 16.0866 19.9766 15.459C21.1009 14.7722 22.0723 13.8592 22.8301 12.7773C23.5878 11.6955 24.1161 10.4683 24.3809 9.17188H21.1436C20.4409 11.6717 18.3583 13.9444 16.376 14.1592V9.17188H13.1387V17.9092C11.1312 17.4041 8.59638 14.9544 8.4834 9.17188H5.0459Z" fill="#71101E"/>
</svg>
