<svg width="217" height="89" viewBox="0 0 217 89" fill="none" xmlns="http://www.w3.org/2000/svg">
<path d="M216.113 67.7267C217.111 68.6804 217.148 70.2629 216.194 71.2613L200.652 87.5312C199.699 88.5296 198.116 88.5658 197.118 87.6121C196.119 86.6584 196.083 85.0759 197.037 84.0775L210.852 69.6154L196.389 55.8006C195.391 54.8469 195.355 53.2644 196.309 52.266C197.262 51.2676 198.845 51.2314 199.843 52.1851L216.113 67.7267ZM2.31048 2.95456L3.69946 0.875927C44.1529 27.9076 75.7824 44.8898 107.758 54.902C139.71 64.9071 172.164 68.0005 214.329 67.0351L214.386 69.5344L214.443 72.0338C171.964 73.0063 138.918 69.8985 106.264 59.6735C73.6316 49.4557 41.5456 32.1789 0.921496 5.0332L2.31048 2.95456Z" fill="#71101E"/>
</svg>
