<svg width="672" height="185" viewBox="0 0 672 185" fill="none" xmlns="http://www.w3.org/2000/svg">
<path d="M0 180.818V73.1378C12.5009 65.8235 22.3321 62.8792 37.9439 62.8792C70.9758 62.8792 83.2418 86.0837 83.4838 115.387C83.7045 138.568 83.7045 157.613 83.4838 180.818H60.4968C60.7174 160.059 60.7174 140.539 60.4968 119.78C60.2618 95.3686 53.7907 87.5481 40.8556 87.5481C33.2597 87.5481 26.575 89.2617 22.7735 91.9413V180.818H0ZM102.883 62.8714C109.24 62.9726 123.962 63.2453 134.712 74.1192C144.159 83.6845 147.611 98.5233 147.754 115.379C147.974 138.561 147.974 157.606 147.754 180.81H124.767C124.987 160.051 124.987 140.531 124.767 119.773C124.61 104.49 121.912 95.4309 116.395 90.9832C112.757 88.0466 107.774 87.7895 105.125 87.5403C99.4943 87.0184 94.9168 88.2335 92.1689 89.2228C91.0655 85.4917 89.1434 80.4753 85.7192 75.3032C83.6333 72.1563 81.4691 69.6637 79.5399 67.7475C84.5018 65.5353 92.6672 62.7078 102.89 62.8636L102.883 62.8714Z" fill="#71101E"/>
<path d="M404.027 180.819V73.1387C416.528 65.8245 426.359 62.8802 441.971 62.8802C475.003 62.8802 487.269 86.0847 487.511 115.388C487.732 138.569 487.732 157.614 487.511 180.819H464.524C464.745 160.06 464.745 140.54 464.524 119.781C464.289 95.3696 457.818 87.5491 444.883 87.5491C437.287 87.5491 430.602 89.2627 426.801 91.9422V180.819H404.034H404.027ZM506.91 62.8802C513.267 62.9814 527.989 63.2541 538.739 74.128C548.186 83.6933 551.639 98.5321 551.781 115.388C552.002 138.569 552.002 157.614 551.781 180.819H528.794C529.015 160.06 529.015 140.54 528.794 119.781C528.637 104.499 525.939 95.4397 520.422 90.9919C516.784 88.0554 511.801 87.7983 509.153 87.5491C503.522 87.0272 498.944 88.2423 496.196 89.2316C495.093 85.5005 493.171 80.4841 489.747 75.312C487.661 72.1651 485.497 69.6725 483.567 67.7563C488.529 65.5441 496.695 62.7166 506.917 62.8724L506.91 62.8802Z" fill="#71101E"/>
<path d="M258.738 62.4746V170.155C246.472 177.469 231.736 180.413 217.455 180.413C176.172 180.413 162.782 157.209 162.561 128.637C162.34 105.433 162.34 85.6713 162.561 62.4668H185.769C185.548 83.2254 185.548 102.746 185.769 123.504C186.004 147.184 194.71 155.737 214.786 155.737C224.382 155.737 232.191 153.789 235.758 151.102V62.4668H258.745L258.738 62.4746Z" fill="#71101E"/>
<path d="M338.292 2.19262L332.71 24.9142C329.364 23.9171 327.371 23.6835 324.459 23.6835C314.194 23.6835 313.083 32.7269 313.083 44.6758V67.6388H347.447C347.667 58.3539 347.902 46.148 347.902 35.4064C347.902 10.2702 361.514 -0.22987 380.03 0.00381052C384.721 0.00381052 388.95 0.73601 394.766 2.19262L390.075 24.9142C386.494 23.9171 384.493 23.6835 381.81 23.6835C371.544 23.6835 370.434 32.7269 370.434 44.6758V67.6388H390.516V90.1033H370.22V182.399H347.454V90.1033H312.856V182.399H290.324V90.1033H271.352C271.317 82.719 271.274 75.3269 271.238 67.9426C277.603 67.8413 283.96 67.74 290.324 67.6388C290.545 58.3539 290.545 46.148 290.78 35.4064C290.773 10.2702 304.149 -0.22987 322.68 0.00381052C327.371 0.00381052 332.276 0.73601 338.292 2.19262Z" fill="#71101E"/>
<path d="M619.562 184.175C586.31 184.175 565.103 158.05 565.103 123.114C565.103 88.179 586.089 62.3105 618.452 62.3105C650.815 62.3105 672.001 87.4624 672.001 123.114C672.001 126.059 672.001 128.504 671.78 131.425H588.082C590.097 149.972 602.363 160.971 619.555 160.971C630.711 160.971 642.322 155.604 648.793 147.292L663.073 164.39C653.918 177.094 636.071 184.175 619.555 184.175H619.562ZM648.131 112.139C646.116 96.2721 633.85 85.515 618.459 85.515C603.068 85.515 590.788 96.2721 588.766 112.139H648.131Z" fill="#71101E"/>
</svg>
